<svg width="25" height="24" viewBox="0 0 25 24" fill="none" xmlns="http://www.w3.org/2000/svg">
<path d="M20.5576 0.599976H5.34092C3.78085 0.599976 2.50879 1.87202 2.50879 3.43198V20.544C2.50879 22.104 3.78089 23.376 5.34092 23.376H20.5576C22.1177 23.376 23.3897 22.1039 23.3897 20.544L23.3896 3.43198C23.4136 1.87198 22.1416 0.599976 20.5575 0.599976H20.5576ZM6.10895 5.35198C6.10895 4.89596 6.46897 4.53596 6.92501 4.53596H10.8612C11.3172 4.53596 11.6772 4.89596 11.6772 5.35198L11.6772 9.83998C11.6772 10.296 11.3171 10.656 10.8611 10.656H6.92493C6.46889 10.656 6.10887 10.296 6.10887 9.83998L6.10895 5.35198ZM19.2375 19.224H6.66098C6.32494 19.224 6.03697 18.936 6.03697 18.6C6.03697 18.264 6.32494 17.976 6.66098 17.976H19.2375C19.5736 17.976 19.8615 18.264 19.8615 18.6C19.8615 18.936 19.5735 19.224 19.2375 19.224H19.2375ZM19.2375 14.832H6.66098C6.32494 14.832 6.03697 14.544 6.03697 14.208C6.03697 13.872 6.32494 13.584 6.66098 13.584H19.2375C19.5736 13.584 19.8615 13.872 19.8615 14.208C19.8615 14.5439 19.5735 14.832 19.2375 14.832H19.2375ZM19.2375 10.416H14.7493C14.4133 10.416 14.1253 10.128 14.1253 9.792C14.1253 9.45598 14.4133 9.16802 14.7493 9.16802H19.2135C19.5496 9.16802 19.8375 9.45598 19.8375 9.792C19.8616 10.152 19.5736 10.416 19.2375 10.416H19.2375ZM19.2375 6.02398H14.7493C14.4133 6.02398 14.1253 5.73602 14.1253 5.4C14.1253 5.06398 14.4133 4.77602 14.7493 4.77602H19.2135C19.5496 4.77602 19.8375 5.06398 19.8375 5.4C19.8375 5.73602 19.5736 6.02398 19.2375 6.02398H19.2375Z" fill="white"/>
</svg>
