<svg width="22" height="23" viewBox="0 0 22 23" fill="none" xmlns="http://www.w3.org/2000/svg">
<path d="M18.3614 0H4.56242C2.52213 0 0.961914 1.495 0.961914 3.45V10.35H13.0807L10.3203 7.705C9.84021 7.245 9.84021 6.555 10.3203 6.095C10.8003 5.635 11.5204 5.635 12.0005 6.095L16.8012 10.695C17.2813 11.155 17.2813 11.845 16.8012 12.305L12.0005 16.905C11.5204 17.365 10.8003 17.365 10.3203 16.905C9.84021 16.445 9.84021 15.755 10.3203 15.295L13.0807 12.65H0.961914V19.55C0.961914 21.505 2.52213 23 4.56242 23H18.3614C20.4017 23 21.9619 21.505 21.9619 19.55V3.45C21.9619 1.495 20.4017 0 18.3614 0Z" fill="#728D9B"/>
</svg>
