<svg width="98" height="98" viewBox="0 0 98 98" fill="none" xmlns="http://www.w3.org/2000/svg">
<g filter="url(#filter0_d_28_813)">
<circle cx="49" cy="46" r="35" fill="#4298C8"/>
</g>
<path d="M49.4997 32.5834C42.3955 32.5834 36.583 38.3959 36.583 45.5C36.583 48.4709 37.6163 51.3125 39.5538 53.6375L36.9705 56.2209C36.4538 56.7375 36.4538 57.5125 36.9705 58.0292C37.2288 58.2875 37.4872 58.4167 37.8747 58.4167H49.4997C56.6038 58.4167 62.4163 52.6042 62.4163 45.5C62.4163 38.3959 56.6038 32.5834 49.4997 32.5834ZM44.333 46.7917C43.558 46.7917 43.0413 46.275 43.0413 45.5C43.0413 44.725 43.558 44.2084 44.333 44.2084C45.108 44.2084 45.6247 44.725 45.6247 45.5C45.6247 46.275 45.108 46.7917 44.333 46.7917ZM49.4997 46.7917C48.7247 46.7917 48.208 46.275 48.208 45.5C48.208 44.725 48.7247 44.2084 49.4997 44.2084C50.2747 44.2084 50.7913 44.725 50.7913 45.5C50.7913 46.275 50.2747 46.7917 49.4997 46.7917ZM54.6663 46.7917C53.8913 46.7917 53.3747 46.275 53.3747 45.5C53.3747 44.725 53.8913 44.2084 54.6663 44.2084C55.4413 44.2084 55.958 44.725 55.958 45.5C55.958 46.275 55.4413 46.7917 54.6663 46.7917Z" fill="white"/>
<defs>
<filter id="filter0_d_28_813" x="0" y="0" width="98" height="98" filterUnits="userSpaceOnUse" color-interpolation-filters="sRGB">
<feFlood flood-opacity="0" result="BackgroundImageFix"/>
<feColorMatrix in="SourceAlpha" type="matrix" values="0 0 0 0 0 0 0 0 0 0 0 0 0 0 0 0 0 0 127 0" result="hardAlpha"/>
<feOffset dy="3"/>
<feGaussianBlur stdDeviation="7"/>
<feComposite in2="hardAlpha" operator="out"/>
<feColorMatrix type="matrix" values="0 0 0 0 0 0 0 0 0 0 0 0 0 0 0 0 0 0 0.08 0"/>
<feBlend mode="normal" in2="BackgroundImageFix" result="effect1_dropShadow_28_813"/>
<feBlend mode="normal" in="SourceGraphic" in2="effect1_dropShadow_28_813" result="shape"/>
</filter>
</defs>
</svg>
