<svg width="24" height="24" viewBox="0 0 24 24" fill="none" xmlns="http://www.w3.org/2000/svg">
<path d="M19.6076 0.599976H4.39157C2.83157 0.599976 1.55957 1.87202 1.55957 3.43198V20.544C1.55957 22.104 2.83161 23.376 4.39157 23.376H19.6076C21.1676 23.376 22.4396 22.1039 22.4396 20.544L22.4395 3.43198C22.4635 1.87198 21.1915 0.599976 19.6075 0.599976H19.6076ZM5.15957 5.35198C5.15957 4.89596 5.51957 4.53596 5.97559 4.53596H9.91159C10.3676 4.53596 10.7276 4.89596 10.7276 5.35198L10.7275 9.83998C10.7275 10.296 10.3675 10.656 9.91151 10.656H5.97551C5.51949 10.656 5.15949 10.296 5.15949 9.83998L5.15957 5.35198ZM18.2876 19.224H5.71157C5.37555 19.224 5.08759 18.936 5.08759 18.6C5.08759 18.264 5.37555 17.976 5.71157 17.976H18.2876C18.6236 17.976 18.9116 18.264 18.9116 18.6C18.9116 18.936 18.6235 19.224 18.2875 19.224H18.2876ZM18.2876 14.832H5.71157C5.37555 14.832 5.08759 14.544 5.08759 14.208C5.08759 13.872 5.37555 13.584 5.71157 13.584H18.2876C18.6236 13.584 18.9116 13.872 18.9116 14.208C18.9116 14.5439 18.6235 14.832 18.2875 14.832H18.2876ZM18.2876 10.416H13.7996C13.4635 10.416 13.1756 10.128 13.1756 9.792C13.1756 9.45598 13.4635 9.16802 13.7996 9.16802H18.2636C18.5996 9.16802 18.8876 9.45598 18.8876 9.792C18.9116 10.152 18.6236 10.416 18.2875 10.416H18.2876ZM18.2876 6.02398H13.7996C13.4635 6.02398 13.1756 5.73602 13.1756 5.4C13.1756 5.06398 13.4635 4.77602 13.7996 4.77602H18.2636C18.5996 4.77602 18.8876 5.06398 18.8876 5.4C18.8876 5.73602 18.6236 6.02398 18.2875 6.02398H18.2876Z" fill="#2C96D0"/>
</svg>
