<svg width="25" height="25" viewBox="0 0 25 25" fill="none" xmlns="http://www.w3.org/2000/svg">
<path d="M23.7469 21.9568L23.7446 21.9546L19.5758 17.8163C21.1981 15.7377 21.9806 13.1227 21.7643 10.4908C21.5443 7.81408 20.3079 5.32341 18.3092 3.53094C16.3105 1.73848 13.7016 0.780466 11.0187 0.853933C8.3359 0.927401 5.78318 2.02676 3.88546 3.92592C1.98774 5.82508 0.889253 8.37969 0.815844 11.0645C0.742435 13.7492 1.69968 16.3601 3.49078 18.3603C5.28187 20.3605 7.77069 21.5979 10.4455 21.8181C13.0756 22.0346 15.6888 21.2514 17.7658 19.6276L21.9004 23.7654C22.0212 23.8872 22.1649 23.984 22.3232 24.05C22.4816 24.116 22.6514 24.15 22.823 24.15C22.9945 24.15 23.1643 24.116 23.3227 24.05C23.481 23.984 23.6247 23.8872 23.7455 23.7654L23.7469 23.764C23.981 23.5215 24.1119 23.1975 24.1119 22.8604C24.1119 22.5232 23.981 22.1993 23.7469 21.9568ZM11.3298 19.2771C9.76828 19.2771 8.24184 18.8137 6.94348 17.9455C5.64512 17.0773 4.63316 15.8433 4.03557 14.3995C3.43799 12.9557 3.28163 11.367 3.58628 9.83426C3.89092 8.30153 4.64289 6.89364 5.74706 5.78862C6.85124 4.68361 8.25803 3.9311 9.78953 3.62624C11.321 3.32137 12.9085 3.47784 14.3511 4.07586C15.7938 4.67388 17.0268 5.68659 17.8944 6.98596C18.7619 8.28533 19.225 9.81299 19.225 11.3757C19.225 13.4713 18.3932 15.4811 16.9125 16.9629C15.4319 18.4446 13.4237 19.2771 11.3298 19.2771Z" fill="#728D9B" stroke="#728D9B" stroke-width="0.3"/>
</svg>
