<svg width="23" height="47" viewBox="0 0 23 47" fill="none" xmlns="http://www.w3.org/2000/svg">
<path fill-rule="evenodd" clip-rule="evenodd" d="M4.30942 7.34378C4.30942 3.28802 7.52515 3.05176e-05 11.4918 3.05176e-05C15.4584 3.05176e-05 18.6742 3.28802 18.6742 7.34378V26.0775C21.299 28.2288 22.9836 31.5384 22.9836 35.25C22.9836 41.7394 17.8385 47 11.4918 47C5.14504 47 0 41.7394 0 35.25C0 31.5381 1.68461 28.2286 4.30942 26.0775V7.34378ZM11.4918 8.81253C12.2851 8.81253 12.9283 9.47019 12.9283 10.2813V30.8438C12.9283 30.9267 12.9215 31.008 12.9087 31.0874C14.5927 31.6867 15.8012 33.3239 15.8012 35.2501C15.8012 37.6836 13.8719 39.6563 11.4918 39.6563C9.11165 39.6563 7.18235 37.6836 7.18235 35.2501C7.18235 33.324 8.39087 31.6867 10.0748 31.0874C10.062 31.008 10.0553 30.9267 10.0553 30.8438V10.2813C10.0553 9.47019 10.6985 8.81253 11.4917 8.81253H11.4918Z" fill="#4298C8"/>
</svg>
