<svg width="19" height="20" viewBox="0 0 19 20" fill="none" xmlns="http://www.w3.org/2000/svg">
<path d="M18.6549 12.2053C18.4784 11.5332 17.787 11.1346 17.1169 11.3186L14.9989 11.9L11.917 10.0781L14.8678 8.33443L16.9849 8.91558C17.6553 9.09959 18.3468 8.70042 18.5227 8.0279C18.6956 7.36656 18.3044 6.68913 17.6451 6.50848L16.189 6.10948L16.5931 4.56938C16.7631 3.92144 16.38 3.25735 15.7339 3.0802C15.0775 2.9002 14.4005 3.29104 14.2281 3.94953L13.6471 6.16874L10.6962 7.91261V4.26879L12.2964 2.62814C12.7642 2.14847 12.764 1.38319 12.2959 0.903803C11.8118 0.408065 11.0146 0.407756 10.5301 0.90312L9.4757 1.98129L8.42125 0.90312C7.93679 0.407756 7.1396 0.408065 6.65552 0.903803C6.18741 1.38319 6.18717 2.14847 6.655 2.62814L8.25514 4.26879V7.91261L5.30432 6.16874L4.72333 3.94953C4.55094 3.29105 3.8739 2.9002 3.21746 3.0802C2.57143 3.25735 2.1883 3.92144 2.35831 4.56938L2.76241 6.10948L1.30629 6.50848C0.647004 6.68913 0.255746 7.36656 0.428722 8.0279C0.604622 8.70042 1.29611 9.09959 1.96645 8.91558L4.08361 8.33443L7.03443 10.0781L3.95245 11.9L1.83223 11.3185C1.16177 11.1347 0.470303 11.534 0.294459 12.2066C0.121535 12.868 0.512855 13.5455 1.17221 13.7262L2.62803 14.1251L2.22561 15.6652C2.05628 16.3132 2.43964 16.9769 3.08558 17.154C3.74241 17.3341 4.41983 16.943 4.59228 16.2841L5.17295 14.0656L8.25509 12.2438V15.7313L6.65494 17.3719C6.18712 17.8516 6.18735 18.6169 6.65546 19.0963C7.13954 19.592 7.93674 19.5923 8.4212 19.0969L9.47564 18.0188L10.5301 19.0969C11.0145 19.5923 11.8117 19.592 12.2958 19.0963C12.7639 18.6169 12.7642 17.8516 12.2963 17.3719L10.6962 15.7313V12.2438L13.7783 14.0656L14.359 16.2841C14.5314 16.943 15.2089 17.3341 15.8657 17.154C16.5116 16.9769 16.895 16.3132 16.7257 15.6652L16.3232 14.1251L17.7774 13.7266C18.4375 13.5457 18.8288 12.8672 18.6549 12.2053Z" fill="#4298C8"/>
</svg>
